<?xml version="1.0" ?><!DOCTYPE svg  PUBLIC '-//W3C//DTD SVG 1.1//EN'  'http://www.w3.org/Graphics/SVG/1.1/DTD/svg11.dtd'><svg height="64px" id="Layer_1" style="enable-background:new 0 0 64 64;" version="1.1" viewBox="0 0 64 64" width="64px" xml:space="preserve" xmlns="http://www.w3.org/2000/svg" xmlns:sketch="http://www.bohemiancoding.com/sketch/ns" xmlns:xlink="http://www.w3.org/1999/xlink"><title/><desc/><g id="Page-1"><g id="Group" transform="translate(12.000000, 5.000000)"><path d="M41.011,16.99    C41.011,28.582,23.24,58,20.001,58c-3.24,0-21.012-29.418-21.012-41.01C-1.011,5.396,8.395-4,20.001-4    C31.605-4,41.011,5.396,41.011,16.99L41.011,16.99z" id="Shape" style="fill:none;stroke:#58595B;stroke-width:2;"/><path d="M19.051,31.042    c-0.321,0.321-0.833,0.33-1.144,0.019l-8.995-8.995c-0.311-0.311-0.302-0.823,0.019-1.143l11.399-11.4    c0.321-0.321,10.111,0.008,10.111,0.008s0.246,9.874-0.075,10.194L19.051,31.042L19.051,31.042z" id="Shape_1_" style="fill:none;stroke:#58595B;"/><circle cx="26.939" cy="12.965" id="Oval" r="1.965" style="fill:#58595B;"/><path d="M20.956,14.004l-6.911,6.912" id="Shape_2_" style="fill:none;stroke:#58595B;"/><path d="M16.057,23.917l7.875-7.875" id="Shape_3_" style="fill:none;stroke:#58595B;"/><path d="M19.071,26.042l5.876-5.876" id="Shape_4_" style="fill:none;stroke:#58595B;"/></g><g id="Group_1_" transform="translate(-3279.000000, -318.000000)"/></g></svg>